<?xml version="1.0" encoding="utf-8"?>
<!-- Generator: Adobe Illustrator 19.2.1, SVG Export Plug-In . SVG Version: 6.00 Build 0)  -->
<svg version="1.1" id="Calque_1" xmlns="http://www.w3.org/2000/svg" xmlns:xlink="http://www.w3.org/1999/xlink" x="0px" y="0px"
	 viewBox="0 0 280 153" style="enable-background:new 0 0 280 153;" xml:space="preserve">
<style type="text/css">
	.st0{fill:#FFFFFF;}
</style>
<path class="st0" d="M224,59.5c-2.8,0-5.5,0.5-8,1.4V34h-15v48.5v3.3v27h15v-27v-3.3c0-4.4,3.6-8,8-8s8,3.6,8,8v30.3h15V82.5
	C247,69.8,236.7,59.5,224,59.5z"/>
<path class="st0" d="M123.2,59.5c-3.5,0-6.9,0.8-9.9,2.2h-13.1v20.8v3.3v27h15v-27v-3.3c0-4.4,3.6-8,8-8s8,3.6,8,8v30.3h15V82.5
	C146.2,69.8,135.9,59.5,123.2,59.5z"/>
<g>
	<rect x="77.9" y="60.5" class="st0" width="15" height="52.3"/>
	<path class="st0" d="M85.8,48c5,0,9.2-4.1,9.2-9.2s-4.1-9.2-9.2-9.2s-9.2,4.1-9.2,9.2S80.7,48,85.8,48z"/>
</g>
<path class="st0" d="M67.4,44.8h3.3v-15h-3.3c-12.7,0-23,10.3-23,23v7.7H39v15h5.4v37.2h15V75.5h11.2v-15H59.4v-7.7
	C59.4,48.3,63,44.8,67.4,44.8z"/>
<path class="st0" d="M185.7,95.2c-2.2,2.1-5.1,3.3-8.1,3.3c-6.4,0-11.7-5.2-11.7-11.7c0-6.4,5.2-11.7,11.7-11.7
	c2.7,0,5.3,0.9,7.4,2.6L195.7,67c-4.9-4.5-11.3-7-18-7C163,60,151,72,151,86.7s12,26.7,26.7,26.7c7.1,0,13.7-2.7,18.8-7.7
	L185.7,95.2z"/>
</svg>
