<?xml version="1.0" encoding="utf-8"?>
<!-- Generator: Adobe Illustrator 19.2.1, SVG Export Plug-In . SVG Version: 6.00 Build 0)  -->
<svg version="1.1" id="Calque_1" xmlns="http://www.w3.org/2000/svg" xmlns:xlink="http://www.w3.org/1999/xlink" x="0px" y="0px"
	 viewBox="0 0 280 153" style="enable-background:new 0 0 280 153;" xml:space="preserve">
<style type="text/css">
	.st0{fill:url(#SVGID_1_);}
	.st1{fill:url(#SVGID_2_);}
	.st2{fill:url(#SVGID_3_);}
	.st3{fill:url(#SVGID_4_);}
	.st4{fill:url(#SVGID_5_);}
	.st5{fill:url(#SVGID_6_);}
</style>
<linearGradient id="SVGID_1_" gradientUnits="userSpaceOnUse" x1="201.0081" y1="73.3767" x2="247" y2="73.3767">
	<stop  offset="0" style="stop-color:#E52052"/>
	<stop  offset="1" style="stop-color:#E52052"/>
</linearGradient>
<path class="st0" d="M224,59.5c-2.8,0-5.5,0.5-8,1.4V34h-15v48.5v3.3v27h15v-27v-3.3c0-4.4,3.6-8,8-8c4.4,0,8,3.6,8,8v30.3h15V82.5
	C247,69.8,236.7,59.5,224,59.5z"/>
<linearGradient id="SVGID_2_" gradientUnits="userSpaceOnUse" x1="100.2333" y1="86.1215" x2="146.2252" y2="86.1215">
	<stop  offset="0" style="stop-color:#E52052"/>
	<stop  offset="1" style="stop-color:#E52052"/>
</linearGradient>
<path class="st1" d="M123.2,59.5c-3.5,0-6.9,0.8-9.9,2.2h-13.1v20.8v3.3v27h15v-27v-3.3c0-4.4,3.6-8,8-8c4.4,0,8,3.6,8,8v30.3h15
	V82.5C146.2,69.8,135.9,59.5,123.2,59.5z"/>
<g>
	<linearGradient id="SVGID_3_" gradientUnits="userSpaceOnUse" x1="77.9269" y1="86.6186" x2="92.9671" y2="86.6186">
		<stop  offset="0" style="stop-color:#E52052"/>
		<stop  offset="1" style="stop-color:#E52052"/>
	</linearGradient>
	<rect x="77.9" y="60.5" class="st2" width="15" height="52.3"/>
	<linearGradient id="SVGID_4_" gradientUnits="userSpaceOnUse" x1="76.6194" y1="38.8949" x2="94.9292" y2="38.8949">
		<stop  offset="0" style="stop-color:#E52052"/>
		<stop  offset="1" style="stop-color:#E52052"/>
	</linearGradient>
	<path class="st3" d="M85.8,48c5,0,9.2-4.1,9.2-9.2s-4.1-9.2-9.2-9.2s-9.2,4.1-9.2,9.2S80.7,48,85.8,48z"/>
</g>
<linearGradient id="SVGID_5_" gradientUnits="userSpaceOnUse" x1="38.9487" y1="71.2515" x2="70.6607" y2="71.2515">
	<stop  offset="0" style="stop-color:#E52052"/>
	<stop  offset="1" style="stop-color:#E52052"/>
</linearGradient>
<path class="st4" d="M67.4,44.8h3.3v-15h-3.3c-12.7,0-23,10.3-23,23v7.7h-5.4v15h5.4v37.2h15V75.5h11.2v-15H59.4v-7.7
	C59.4,48.3,63,44.8,67.4,44.8z"/>
<linearGradient id="SVGID_6_" gradientUnits="userSpaceOnUse" x1="150.8758" y1="86.8354" x2="196.3576" y2="86.8354">
	<stop  offset="0" style="stop-color:#E52052"/>
	<stop  offset="1" style="stop-color:#E52052"/>
</linearGradient>
<path class="st5" d="M185.7,95.2c-2.2,2.1-5.1,3.3-8.1,3.3c-6.4,0-11.7-5.2-11.7-11.7c0-6.4,5.2-11.7,11.7-11.7
	c2.7,0,5.3,0.9,7.4,2.6l10.7-10.7c-4.9-4.5-11.3-7-18-7c-14.7,0-26.7,12-26.7,26.7s12,26.7,26.7,26.7c7.1,0,13.7-2.7,18.8-7.7
	L185.7,95.2z"/>
</svg>
